<?xml version="1.0" encoding="utf-8" ?>
<svg baseProfile="tiny" height="1024" version="1.2" width="1024" xmlns="http://www.w3.org/2000/svg" xmlns:ev="http://www.w3.org/2001/xml-events" xmlns:xlink="http://www.w3.org/1999/xlink"><defs /><path d="M 204,486 L 204,595 L 230,595 L 230,486 Z" fill="black" /><path d="M 788,483 L 787,484 L 780,484 L 779,485 L 777,485 L 776,486 L 774,486 L 773,487 L 771,487 L 770,488 L 769,488 L 768,489 L 767,489 L 765,491 L 764,491 L 762,493 L 761,493 L 757,497 L 756,497 L 755,498 L 755,499 L 752,502 L 752,503 L 749,506 L 749,507 L 748,508 L 748,509 L 747,510 L 747,511 L 746,512 L 746,513 L 745,514 L 745,516 L 744,517 L 744,518 L 743,519 L 743,522 L 742,523 L 742,526 L 741,527 L 741,535 L 740,536 L 740,547 L 741,548 L 741,554 L 742,555 L 742,559 L 743,560 L 743,562 L 744,563 L 744,565 L 745,566 L 745,567 L 746,568 L 746,569 L 747,570 L 747,571 L 749,573 L 749,574 L 750,575 L 750,576 L 753,579 L 753,580 L 759,586 L 760,586 L 763,589 L 764,589 L 766,591 L 767,591 L 768,592 L 769,592 L 770,593 L 771,593 L 772,594 L 774,594 L 775,595 L 776,595 L 777,596 L 781,596 L 782,597 L 788,597 L 789,598 L 797,598 L 798,597 L 806,597 L 807,596 L 810,596 L 811,595 L 813,595 L 814,594 L 815,594 L 816,593 L 818,593 L 820,591 L 821,591 L 822,590 L 823,590 L 826,587 L 827,587 L 832,582 L 832,581 L 835,578 L 835,577 L 837,575 L 837,574 L 838,573 L 838,572 L 840,570 L 840,569 L 841,568 L 841,567 L 842,566 L 842,565 L 843,564 L 842,563 L 841,564 L 840,563 L 839,564 L 838,563 L 830,563 L 829,562 L 821,562 L 820,561 L 818,563 L 818,564 L 817,565 L 817,566 L 809,574 L 808,574 L 807,575 L 806,575 L 805,576 L 803,576 L 802,577 L 799,577 L 798,578 L 790,578 L 789,577 L 786,577 L 785,576 L 783,576 L 782,575 L 781,575 L 780,574 L 779,574 L 773,568 L 773,567 L 771,565 L 771,564 L 770,563 L 770,562 L 769,561 L 769,559 L 768,558 L 768,555 L 767,554 L 767,548 L 768,547 L 845,547 L 845,529 L 844,528 L 844,524 L 843,523 L 843,520 L 842,519 L 842,516 L 841,515 L 841,514 L 840,513 L 840,512 L 839,511 L 839,510 L 838,509 L 838,508 L 837,507 L 837,506 L 835,504 L 835,503 L 833,501 L 833,500 L 828,495 L 827,495 L 824,492 L 823,492 L 821,490 L 820,490 L 819,489 L 818,489 L 817,488 L 816,488 L 815,487 L 814,487 L 813,486 L 811,486 L 810,485 L 807,485 L 806,484 L 801,484 L 800,483 Z" fill="black" /><path d="M 667,483 L 666,484 L 664,484 L 663,485 L 662,484 L 661,485 L 659,485 L 658,486 L 656,486 L 655,487 L 654,487 L 653,488 L 652,488 L 651,489 L 650,489 L 649,490 L 648,490 L 647,491 L 646,491 L 644,493 L 643,493 L 639,497 L 638,497 L 637,498 L 637,499 L 632,504 L 632,505 L 631,506 L 631,507 L 629,509 L 629,510 L 628,511 L 628,512 L 627,513 L 627,514 L 626,515 L 626,517 L 625,518 L 625,519 L 624,520 L 624,523 L 623,524 L 623,528 L 622,529 L 622,536 L 621,537 L 622,538 L 622,552 L 623,553 L 623,558 L 624,559 L 624,561 L 625,562 L 625,564 L 626,565 L 626,566 L 627,567 L 627,568 L 628,569 L 628,570 L 629,571 L 629,572 L 630,573 L 630,574 L 632,576 L 632,577 L 637,582 L 637,583 L 638,584 L 639,584 L 643,588 L 644,588 L 646,590 L 647,590 L 648,591 L 649,591 L 651,593 L 653,593 L 654,594 L 655,594 L 656,595 L 658,595 L 659,596 L 661,596 L 662,597 L 668,597 L 669,598 L 685,598 L 686,597 L 692,597 L 693,596 L 695,596 L 696,595 L 698,595 L 699,594 L 700,594 L 701,593 L 702,593 L 703,592 L 705,592 L 707,590 L 708,590 L 710,588 L 711,588 L 721,578 L 721,577 L 723,575 L 723,574 L 725,572 L 725,571 L 726,570 L 726,569 L 727,568 L 727,566 L 728,565 L 728,564 L 729,563 L 729,562 L 725,562 L 724,561 L 715,561 L 714,560 L 703,560 L 702,561 L 702,562 L 699,565 L 699,566 L 694,571 L 693,571 L 691,573 L 690,573 L 689,574 L 688,574 L 687,575 L 686,575 L 685,576 L 679,576 L 678,577 L 676,577 L 675,576 L 670,576 L 669,575 L 668,575 L 667,574 L 665,574 L 664,573 L 663,573 L 661,571 L 660,571 L 655,566 L 655,565 L 653,563 L 653,562 L 652,561 L 652,560 L 651,559 L 651,558 L 650,557 L 650,554 L 649,553 L 649,551 L 648,550 L 648,532 L 649,531 L 649,528 L 650,527 L 650,525 L 651,524 L 651,523 L 652,522 L 652,521 L 653,520 L 653,519 L 654,518 L 654,517 L 661,510 L 662,510 L 663,509 L 664,509 L 665,508 L 666,508 L 667,507 L 668,507 L 669,506 L 679,506 L 680,505 L 681,506 L 684,506 L 685,507 L 687,507 L 688,508 L 689,508 L 690,509 L 691,509 L 692,510 L 693,510 L 701,518 L 701,519 L 702,520 L 702,521 L 703,521 L 704,520 L 707,520 L 708,521 L 709,520 L 721,520 L 722,519 L 729,519 L 729,517 L 728,516 L 728,515 L 727,514 L 727,512 L 726,511 L 726,510 L 724,508 L 724,507 L 723,506 L 723,505 L 718,500 L 718,499 L 716,497 L 715,497 L 711,493 L 710,493 L 708,491 L 707,491 L 706,490 L 705,490 L 703,488 L 701,488 L 700,487 L 699,487 L 698,486 L 696,486 L 695,485 L 692,485 L 691,484 L 685,484 L 684,483 Z" fill="black" /><path d="M 371,483 L 370,484 L 365,484 L 364,485 L 361,485 L 360,486 L 358,486 L 357,487 L 355,487 L 354,488 L 353,488 L 352,489 L 351,489 L 349,491 L 348,491 L 345,494 L 344,494 L 335,503 L 335,504 L 333,506 L 333,507 L 332,508 L 332,509 L 331,510 L 331,511 L 330,512 L 330,513 L 329,514 L 329,516 L 328,517 L 328,518 L 327,519 L 327,521 L 326,522 L 326,526 L 325,527 L 325,553 L 326,554 L 326,558 L 327,559 L 327,561 L 328,562 L 328,564 L 329,565 L 329,567 L 330,568 L 330,569 L 331,570 L 331,571 L 332,572 L 332,573 L 334,575 L 334,576 L 337,579 L 337,580 L 343,586 L 344,586 L 347,589 L 348,589 L 350,591 L 351,591 L 352,592 L 353,592 L 354,593 L 356,593 L 357,594 L 358,594 L 359,595 L 361,595 L 362,596 L 364,596 L 365,597 L 372,597 L 373,598 L 374,597 L 375,598 L 385,598 L 386,597 L 393,597 L 394,596 L 396,596 L 397,595 L 400,595 L 401,594 L 403,594 L 404,593 L 405,593 L 406,592 L 407,592 L 408,591 L 409,591 L 411,589 L 412,589 L 415,586 L 416,586 L 424,578 L 424,577 L 426,575 L 426,574 L 428,572 L 428,571 L 429,570 L 429,569 L 430,568 L 430,567 L 431,566 L 431,565 L 432,564 L 431,563 L 423,563 L 422,562 L 421,563 L 420,562 L 409,562 L 408,561 L 407,561 L 407,562 L 403,566 L 403,567 L 401,569 L 400,569 L 396,573 L 395,573 L 394,574 L 393,574 L 391,576 L 389,576 L 388,577 L 384,577 L 383,578 L 375,578 L 374,577 L 371,577 L 370,576 L 368,576 L 367,575 L 366,575 L 365,574 L 364,574 L 362,572 L 361,572 L 357,568 L 357,567 L 355,565 L 355,564 L 354,563 L 354,562 L 353,561 L 353,560 L 352,559 L 352,556 L 351,555 L 351,549 L 350,548 L 351,547 L 431,547 L 431,534 L 430,533 L 430,532 L 431,531 L 430,530 L 430,527 L 429,526 L 429,523 L 428,522 L 428,519 L 427,518 L 427,516 L 426,515 L 426,513 L 425,512 L 425,511 L 424,510 L 424,509 L 423,508 L 423,507 L 421,505 L 421,504 L 418,501 L 418,500 L 414,496 L 413,496 L 408,491 L 407,491 L 406,490 L 405,490 L 403,488 L 402,488 L 401,487 L 399,487 L 398,486 L 396,486 L 395,485 L 393,485 L 392,484 L 386,484 L 385,483 Z" fill="black" /><path d="M 864,441 L 864,595 L 889,595 L 889,441 Z" fill="black" /><path d="M 295,440 L 294,441 L 288,441 L 287,442 L 285,442 L 284,443 L 283,443 L 282,444 L 281,444 L 280,445 L 279,445 L 277,447 L 276,447 L 272,451 L 272,452 L 271,453 L 271,454 L 269,456 L 269,458 L 268,459 L 268,461 L 267,462 L 267,465 L 266,466 L 266,471 L 265,472 L 265,485 L 264,486 L 246,486 L 246,506 L 264,506 L 265,507 L 265,595 L 291,595 L 291,507 L 292,506 L 317,506 L 317,486 L 291,486 L 290,485 L 290,484 L 291,483 L 291,481 L 290,480 L 290,474 L 291,473 L 291,469 L 292,468 L 292,467 L 293,466 L 293,465 L 295,463 L 296,463 L 298,461 L 300,461 L 301,460 L 303,460 L 304,459 L 315,459 L 316,458 L 315,457 L 315,442 L 316,441 L 296,441 Z" fill="black" /><path d="M 149,440 L 149,595 L 173,595 L 173,441 L 150,441 Z" fill="black" /><path d="M 213,439 L 212,440 L 210,440 L 209,441 L 208,441 L 207,442 L 206,442 L 204,444 L 204,445 L 203,446 L 203,447 L 202,448 L 202,449 L 201,450 L 201,457 L 202,458 L 202,460 L 204,462 L 204,463 L 206,465 L 207,465 L 209,467 L 211,467 L 212,468 L 221,468 L 222,467 L 224,467 L 226,465 L 227,465 L 229,463 L 229,462 L 231,460 L 231,458 L 232,457 L 232,452 L 231,451 L 231,448 L 230,447 L 230,446 L 225,441 L 224,441 L 223,440 L 221,440 L 220,439 Z" fill="black" /><path d="M 394,361 L 394,363 L 397,366 L 397,367 L 399,369 L 400,369 L 403,372 L 403,373 L 411,381 L 411,382 L 416,387 L 416,388 L 422,394 L 422,395 L 427,400 L 427,401 L 430,404 L 430,405 L 434,409 L 434,410 L 437,413 L 437,414 L 440,417 L 440,418 L 443,421 L 443,422 L 445,424 L 445,425 L 448,428 L 448,429 L 451,432 L 451,433 L 453,435 L 453,436 L 455,438 L 455,439 L 457,441 L 457,442 L 460,445 L 460,446 L 461,447 L 461,448 L 463,450 L 463,451 L 465,453 L 465,454 L 467,456 L 467,457 L 469,459 L 469,460 L 471,462 L 471,463 L 472,464 L 472,465 L 474,467 L 474,468 L 475,469 L 475,470 L 476,471 L 476,472 L 478,474 L 478,475 L 480,477 L 480,478 L 481,479 L 481,480 L 483,482 L 483,483 L 482,484 L 482,485 L 481,486 L 481,487 L 479,489 L 479,490 L 478,491 L 478,492 L 477,493 L 477,494 L 476,495 L 476,496 L 475,497 L 475,498 L 474,499 L 474,500 L 473,501 L 473,502 L 472,503 L 472,504 L 471,505 L 471,506 L 470,507 L 470,509 L 469,510 L 469,511 L 468,512 L 468,513 L 467,514 L 467,515 L 466,516 L 466,517 L 465,518 L 465,520 L 464,521 L 464,522 L 463,523 L 463,524 L 462,525 L 462,526 L 461,527 L 461,529 L 460,530 L 460,531 L 459,532 L 459,534 L 458,535 L 458,537 L 457,538 L 457,539 L 456,540 L 456,542 L 455,543 L 455,545 L 454,546 L 454,548 L 453,549 L 453,550 L 452,551 L 452,553 L 451,554 L 451,557 L 450,558 L 450,560 L 449,561 L 449,564 L 448,565 L 448,567 L 447,568 L 447,571 L 446,572 L 446,576 L 445,577 L 445,580 L 444,581 L 444,588 L 443,589 L 443,598 L 447,598 L 448,597 L 451,597 L 452,596 L 454,596 L 455,595 L 456,595 L 457,594 L 458,594 L 459,593 L 460,593 L 461,592 L 462,592 L 463,591 L 464,591 L 468,587 L 469,587 L 478,578 L 478,577 L 482,573 L 482,572 L 484,570 L 484,569 L 486,567 L 486,566 L 487,565 L 487,564 L 489,562 L 489,561 L 490,560 L 490,559 L 491,558 L 491,557 L 492,556 L 492,555 L 493,554 L 493,553 L 494,552 L 494,551 L 495,550 L 495,549 L 496,548 L 496,547 L 497,546 L 497,544 L 498,543 L 498,542 L 499,541 L 499,540 L 500,539 L 500,538 L 501,537 L 501,535 L 502,534 L 502,532 L 503,531 L 503,530 L 504,529 L 504,528 L 505,527 L 505,525 L 506,524 L 506,522 L 507,521 L 507,519 L 508,518 L 511,521 L 511,522 L 515,526 L 515,527 L 519,531 L 519,532 L 525,538 L 525,539 L 532,546 L 532,547 L 534,549 L 530,553 L 530,554 L 525,559 L 525,560 L 519,566 L 519,567 L 513,573 L 513,574 L 506,581 L 506,582 L 494,594 L 495,595 L 513,595 L 514,594 L 517,594 L 518,593 L 520,593 L 521,592 L 523,592 L 524,591 L 525,591 L 526,590 L 527,590 L 528,589 L 529,589 L 530,588 L 531,588 L 539,580 L 539,579 L 544,574 L 544,573 L 549,568 L 549,567 L 550,566 L 551,567 L 551,568 L 555,572 L 555,573 L 558,576 L 558,577 L 559,577 L 560,578 L 560,579 L 563,582 L 563,583 L 564,583 L 565,584 L 565,585 L 566,586 L 567,586 L 571,590 L 572,590 L 574,592 L 575,592 L 576,593 L 578,593 L 579,594 L 580,594 L 581,595 L 584,595 L 585,596 L 612,596 L 613,595 L 617,595 L 617,594 L 616,594 L 613,591 L 613,590 L 606,583 L 606,582 L 598,574 L 598,573 L 590,565 L 590,564 L 581,555 L 581,554 L 573,546 L 573,545 L 570,542 L 572,540 L 572,539 L 575,536 L 575,535 L 580,530 L 580,529 L 584,525 L 584,524 L 588,520 L 588,519 L 592,515 L 592,514 L 598,508 L 598,507 L 602,503 L 602,502 L 609,495 L 609,494 L 616,487 L 617,487 L 617,485 L 616,485 L 615,486 L 596,486 L 595,487 L 592,487 L 591,488 L 589,488 L 588,489 L 587,489 L 586,490 L 585,490 L 584,491 L 583,491 L 581,493 L 580,493 L 579,494 L 578,494 L 571,501 L 571,502 L 568,505 L 568,506 L 564,510 L 564,511 L 560,515 L 560,516 L 557,519 L 557,520 L 556,521 L 554,519 L 554,518 L 552,516 L 552,515 L 551,514 L 551,513 L 549,511 L 549,510 L 547,508 L 547,507 L 546,506 L 546,505 L 544,503 L 544,502 L 543,501 L 543,500 L 541,498 L 541,497 L 540,496 L 540,495 L 538,493 L 538,492 L 537,491 L 537,490 L 535,488 L 535,487 L 534,486 L 534,485 L 532,483 L 532,482 L 531,481 L 531,480 L 529,478 L 529,477 L 528,476 L 528,475 L 530,473 L 530,472 L 531,471 L 531,470 L 533,468 L 533,467 L 534,466 L 534,465 L 537,462 L 537,461 L 539,459 L 539,458 L 541,456 L 541,455 L 543,453 L 543,452 L 546,449 L 546,448 L 550,444 L 550,443 L 552,441 L 552,440 L 555,437 L 555,436 L 558,433 L 558,432 L 561,429 L 561,428 L 564,425 L 564,424 L 567,421 L 567,420 L 570,417 L 570,416 L 575,411 L 575,410 L 579,406 L 579,405 L 584,400 L 584,399 L 588,395 L 588,394 L 593,389 L 593,388 L 597,384 L 597,383 L 600,380 L 600,379 L 604,375 L 604,374 L 607,371 L 607,370 L 609,368 L 609,367 L 612,364 L 612,363 L 613,362 L 606,362 L 605,363 L 602,363 L 601,364 L 599,364 L 598,365 L 596,365 L 595,366 L 593,366 L 592,367 L 591,367 L 590,368 L 589,368 L 588,369 L 587,369 L 586,370 L 585,370 L 584,371 L 583,371 L 582,372 L 581,372 L 580,373 L 579,373 L 577,375 L 576,375 L 574,377 L 573,377 L 571,379 L 570,379 L 567,382 L 566,382 L 563,385 L 562,385 L 562,386 L 561,387 L 560,387 L 550,397 L 549,397 L 539,407 L 539,408 L 528,419 L 528,420 L 521,427 L 521,428 L 516,433 L 516,434 L 513,437 L 513,438 L 510,441 L 510,442 L 507,445 L 507,446 L 506,447 L 505,446 L 505,445 L 502,442 L 502,441 L 499,438 L 499,437 L 494,432 L 494,431 L 490,427 L 490,426 L 480,416 L 480,415 L 479,415 L 476,412 L 476,411 L 473,408 L 472,408 L 462,398 L 461,398 L 454,391 L 453,391 L 450,388 L 449,388 L 446,385 L 445,385 L 443,383 L 442,383 L 440,381 L 439,381 L 437,379 L 436,379 L 434,377 L 433,377 L 431,375 L 430,375 L 429,374 L 428,374 L 427,373 L 426,373 L 425,372 L 424,372 L 423,371 L 422,371 L 421,370 L 420,370 L 419,369 L 418,369 L 417,368 L 416,368 L 415,367 L 413,367 L 412,366 L 411,366 L 410,365 L 408,365 L 407,364 L 404,364 L 403,363 L 401,363 L 400,362 L 395,362 Z" fill="black" /><path d="M 500,346 L 499,347 L 496,347 L 495,348 L 494,348 L 493,349 L 492,349 L 491,350 L 490,350 L 488,352 L 487,352 L 486,353 L 486,354 L 482,358 L 482,359 L 481,360 L 481,361 L 480,362 L 480,364 L 479,365 L 479,367 L 478,368 L 478,378 L 479,379 L 479,382 L 480,383 L 480,385 L 481,386 L 481,387 L 483,389 L 483,390 L 489,396 L 490,396 L 491,397 L 492,397 L 494,399 L 496,399 L 497,400 L 500,400 L 501,401 L 512,401 L 513,400 L 515,400 L 516,399 L 518,399 L 519,398 L 520,398 L 522,396 L 523,396 L 528,391 L 528,390 L 530,388 L 530,387 L 532,385 L 532,383 L 533,382 L 533,379 L 534,378 L 534,368 L 533,367 L 533,364 L 532,363 L 532,362 L 531,361 L 531,360 L 530,359 L 530,358 L 528,356 L 528,355 L 527,354 L 526,354 L 522,350 L 521,350 L 520,349 L 519,349 L 518,348 L 516,348 L 515,347 L 513,347 L 512,346 Z" fill="black" /></svg>